<svg width="273" height="92" viewBox="0 0 273 92" fill="none" xmlns="http://www.w3.org/2000/svg">
<g clip-path="url(#clip0_1_233)">
<path opacity="0.1" d="M271.518 1.41772H0V92.0023H271.518V1.41772Z" fill="#FF7D04"/>
<path d="M2.7359 28.2481L29.6019 0.616699H148.617L167.501 20.0388H265.685L272.53 27.0814V82.6069L263.396 92.0016H51.536L46.7079 87.036H7.66782L2.78782 82.0196L2.7359 28.2481Z" stroke="#FF7D04" stroke-width="2" stroke-miterlimit="10"/>
<path opacity="0.3" d="M161.596 0.750244L172.887 12.3634H267.762L272.11 16.8352V0.750244H161.596Z" fill="#FF7D04"/>
<path d="M159.587 11.8989H156.145L149.037 4.58922H140.051L138.185 2.66971H120.842L118.768 0.536621H148.877L159.587 11.8989Z" fill="#FF7D04"/>
<path d="M167.387 6.7063H171.979L177.388 12.27H173.017L167.387 6.7063Z" fill="#FF7D04"/>
<path d="M175.693 6.7063H180.285L185.695 12.27H181.323L175.693 6.7063Z" fill="#FF7D04"/>
<path d="M184 6.7063H188.591L194.001 12.27H189.63L184 6.7063Z" fill="#FF7D04"/>
<path d="M192.306 6.7063H196.898L202.307 12.27H197.936L192.306 6.7063Z" fill="#FF7D04"/>
<path d="M200.612 6.7063H205.204L210.614 12.27H206.243L200.612 6.7063Z" fill="#FF7D04"/>
</g>
<defs>
<clipPath id="clip0_1_233">
<rect width="273" height="92" fill="white"/>
</clipPath>
</defs>
</svg>
