 <svg xmlns="http://www.w3.org/2000/svg">

   <symbol id="geo" viewBox="0 0 12 16">
     <g>
       <path
         d="M5.38338 15.6772C0.842813 9.09472 0 8.41916 0 6C0 2.68628 2.68628 0 6 0C9.31372 0 12 2.68628 12 6C12 8.41916 11.1572 9.09472 6.61662 15.6772C6.31866 16.1076 5.68131 16.1076 5.38338 15.6772ZM6 8.5C7.38072 8.5 8.5 7.38072 8.5 6C8.5 4.61928 7.38072 3.5 6 3.5C4.61928 3.5 3.5 4.61928 3.5 6C3.5 7.38072 4.61928 8.5 6 8.5Z" />
     </g>
   </symbol>
 
   

   <symbol id="template" width="0" height="0" viewbox="0 0 0 0">
     <g>
       <path
         d="M 23 12.3 C 23 6.1 18.1 1 12 1 C 5.9 1 1 6.1 1 12.3 V 27.7 C 1 33.9 5.9 39 12 39 C 18.1 39 23 33.9 23 27.7 V 12.3 Z"
         stroke="white" stroke-width="2" />
       <path d="M 11 10 H 13 V 18 H 11 V 10 Z" />
     </g>
   </symbol>

 </svg>